<svg xmlns="http://www.w3.org/2000/svg" xmlns:xlink="http://www.w3.org/1999/xlink" version="1.1" id="Your_Icon" x="0px" y="0px" width="60.613px" height="90px" viewBox="0 0 60.613 90" enable-background="new 0 0 60.613 90" xml:space="preserve">
<g display="none">
	<g display="inline">
		<g>
		</g>
	</g>
	<g display="inline">
	</g>
</g>
<path id="popcorn" d="M26.97,10.771c0,1.14-1.385,2.063-3.094,2.063c-1.709,0-3.093-0.923-3.093-2.063s1.384-2.063,3.093-2.063  C25.585,8.709,26.97,9.632,26.97,10.771z M37.697,12.009c1.025,0,1.856-0.646,1.856-1.443c0-0.798-0.831-1.443-1.856-1.443  c-1.024,0-1.856,0.646-1.856,1.443C35.841,11.362,36.673,12.009,37.697,12.009z M12.364,18.116c-1.389,0-2.516,0.75-2.516,1.677  s1.127,1.679,2.516,1.679c1.39,0,2.518-0.752,2.518-1.679S13.754,18.116,12.364,18.116z M49.242,17.191  c-0.999,0-1.808,0.539-1.808,1.204c0,0.666,0.809,1.205,1.808,1.205c0.998,0,1.807-0.539,1.807-1.205  C51.049,17.73,50.24,17.191,49.242,17.191z M60.376,25.178v10.119c0,0.239-0.093,0.465-0.263,0.636  c-0.17,0.168-0.396,0.264-0.636,0.264h-1.199L53.57,87.193C53.425,88.78,52.089,90,50.493,90H9.882c-1.595,0-2.931-1.22-3.077-2.807  L2.098,36.196H0.898c-0.236,0-0.468-0.097-0.636-0.264C0.096,35.766,0,35.533,0,35.297V23.52c0-0.128,0.033-0.253,0.085-0.368  c0.152-5.077,3.704-9.322,8.52-10.471c0.658-3.22,2.309-6.162,4.756-8.433C16.313,1.51,20.168,0,24.205,0  c3.898-0.002,7.572,1.381,10.466,3.91c0.588-0.124,1.19-0.186,1.799-0.186c2.787-0.001,5.361,1.31,6.99,3.494  c2.784,0.403,5.185,2.121,6.469,4.583c5.933,0.242,10.683,5.122,10.685,11.101C60.613,23.683,60.53,24.443,60.376,25.178z   M3.471,22.622h53.781c-0.157-4.152-3.569-7.475-7.785-7.482c-0.359,0-0.713,0.026-1.067,0.075l-0.799,0.106l-0.193-0.781  c-0.576-2.329-2.69-4.066-5.215-4.065c-0.009,0-0.05,0.003-0.126,0.004l-0.558,0.006L41.254,9.99  c-0.888-1.73-2.693-2.919-4.784-2.918c-0.751,0-1.46,0.152-2.107,0.427L33.789,7.74L33.36,7.29  c-2.296-2.428-5.542-3.941-9.156-3.941H24.2c-6.62,0-12.039,5.099-12.532,11.557l-0.06,0.788l-0.79,0.04  C6.986,15.926,3.888,18.873,3.471,22.622z M18.73,83.818l-4.396-47.622H8.306L12.7,83.818H18.73z M32.604,83.818L37,36.196H23.375  l4.396,47.622H32.604z M52.069,36.196H46.04l-4.396,47.622h6.029L52.069,36.196z"/>
</svg>